<?xml version="1.0" standalone="no"?>
<!DOCTYPE svg PUBLIC "-//W3C//DTD SVG 20010904//EN"
 "http://www.w3.org/TR/2001/REC-SVG-20010904/DTD/svg10.dtd">
<svg version="1.0" xmlns="http://www.w3.org/2000/svg"
 width="22.000000pt" height="22.000000pt" viewBox="0 0 22.000000 22.000000"
 preserveAspectRatio="xMidYMid meet">

<g transform="translate(0.000000,22.000000) scale(0.100000,-0.100000)"
fill="#000000" stroke="none">
<path d="M20 110 c0 -50 3 -90 8 -90 4 0 7 40 7 90 0 50 -3 90 -7 90 -5 0 -8
-40 -8 -90z"/>
<path d="M156 185 c5 -11 -5 -28 -29 -53 -62 -66 -57 -111 8 -60 l28 21 -5
-36 c-2 -19 0 -33 4 -31 4 3 8 22 8 43 0 22 6 44 15 51 21 17 19 31 -10 59
-18 16 -23 18 -19 6z m34 -35 c0 -5 -2 -10 -4 -10 -3 0 -8 5 -11 10 -3 6 -1
10 4 10 6 0 11 -4 11 -10z m-16 -18 c3 -5 -8 -22 -24 -37 -17 -16 -30 -25 -30
-19 0 5 -4 2 -10 -6 -5 -8 -11 -12 -14 -9 -7 6 52 79 64 79 5 0 11 -4 14 -8z"/>
</g>
</svg>
